<svg xmlns:xlink="http://www.w3.org/1999/xlink" xmlns="http://www.w3.org/2000/svg" viewBox="0 0 20.00049 19.99951 " width="18" height="18"><circle r="4" cx="9.72021" cy="9.81006" fill="#FFFFFF"></circle><path d="M9.22021,3.5a.49481.49481,0,0,1,.5-.5h0a.50126.50126,0,0,1-.5-.5h0a.49481.49481,0,0,1,.5-.5h0a.50126.50126,0,0,1-.5-.5h0a.49481.49481,0,0,1,.5-.5h0a.50126.50126,0,0,1-.5-.5h0a.49481.49481,0,0,1,.5-.5h0a.49511.49511,0,0,1,.5.5h0a.50158.50158,0,0,1-.5.5h0a.49511.49511,0,0,1,.5.5h0a.50158.50158,0,0,1-.5.5h0a.49511.49511,0,0,1,.5.5h0a.50158.50158,0,0,1-.5.5h0a.49511.49511,0,0,1,.5.5h0a.50158.50158,0,0,1-.5.5h0A.50126.50126,0,0,1,9.22021,3.5Z" fill="#FFFFFF"></path><path d="M9.22021,19.49951a.49541.49541,0,0,1,.5-.5h0a.501.501,0,0,1-.5-.5h0a.49541.49541,0,0,1,.5-.5h0a.501.501,0,0,1-.5-.5h0a.49541.49541,0,0,1,.5-.5h0a.501.501,0,0,1-.5-.5h0a.49541.49541,0,0,1,.5-.5h0a.49571.49571,0,0,1,.5.5h0a.50126.50126,0,0,1-.5.5h0a.49571.49571,0,0,1,.5.5h0a.50126.50126,0,0,1-.5.5h0a.49571.49571,0,0,1,.5.5h0a.50126.50126,0,0,1-.5.5h0a.49571.49571,0,0,1,.5.5h0a.50126.50126,0,0,1-.5.5h0A.501.501,0,0,1,9.22021,19.49951Z" fill="#FFFFFF"></path><path d="M12.57959,4.75977a.49166.49166,0,0,1-.17969-.67969h0a.48867.48867,0,0,1,.66016-.19043h0A.50587.50587,0,0,1,12.8999,3.21h0A.50012.50012,0,0,1,13.56006,3.02h0a.49639.49639,0,0,1-.16016-.66992h0a.4912.4912,0,0,1,.66016-.19043h0A.50826.50826,0,0,1,13.8999,1.48h0a.4907.4907,0,0,1,.67969-.18018h0a.49391.49391,0,0,1,.18066.68018h0a.50391.50391,0,0,1-.66015.19971h0a.497.497,0,0,1,.16015.67041h0A.50085.50085,0,0,1,13.6001,3.04h0a.49629.49629,0,0,1,.16015.66992h0a.49472.49472,0,0,1-.66015.19971h0a.497.497,0,0,1,.16015.67041h0a.49575.49575,0,0,1-.43066.25h0A.44985.44985,0,0,1,12.57959,4.75977Z" fill="#FFFFFF"></path><path d="M6.18018,4.58008a.49361.49361,0,0,1,.17968-.68018h0a.50174.50174,0,0,1-.67968-.18017h0A.50527.50527,0,0,1,5.83984,3.04h0a.50012.50012,0,0,1-.65966-.18994h0a.49129.49129,0,0,1,.17968-.68018h0A.50533.50533,0,0,1,4.68018,1.98h0a.49361.49361,0,0,1,.17968-.68018h0A.491.491,0,0,1,5.54,1.48h0a.50478.50478,0,0,1-.18018.68994h0A.491.491,0,0,1,6.04,2.3501h0A.49547.49547,0,0,1,5.87988,3.02h0A.49741.49741,0,0,1,6.54,3.21h0a.50478.50478,0,0,1-.18018.68994h0A.491.491,0,0,1,7.04,4.08008h0a.49057.49057,0,0,1-.18018.67969h0a.44762.44762,0,0,1-.25.07031h0A.49536.49536,0,0,1,6.18018,4.58008Z" fill="#FFFFFF"></path><path d="M14.67041,6.85986a.513.513,0,0,1,.17969-.68994h0a.51685.51685,0,0,1,.68945.18994h0a.50537.50537,0,0,1,.18066-.68994h0a.50275.50275,0,0,1,.67969.18994h0a.5174.5174,0,0,1,.19043-.68994h0a.50547.50547,0,0,1,.67969.18994h0a.50593.50593,0,0,1,.17969-.68994h0a.518.518,0,0,1,.69043.18994h0a.50565.50565,0,0,1-.19043.68018h0A.4933.4933,0,0,1,17.27,5.35986h0a.49444.49444,0,0,1-.17969.68018h0a.50556.50556,0,0,1-.69043-.18018h0a.4936.4936,0,0,1-.17969.68018h0a.49442.49442,0,0,1-.68066-.18018h0a.50129.50129,0,0,1-.17969.68018h0a.47652.47652,0,0,1-.25.06982h0A.49843.49843,0,0,1,14.67041,6.85986Z" fill="#FFFFFF"></path><path d="M4.08008,7.04a.50524.50524,0,0,1-.18018-.68018h0A.50219.50219,0,0,1,3.22021,6.54h0A.49334.49334,0,0,1,3.04,5.85986h0a.49442.49442,0,0,1,.68017-.18994h0a.50507.50507,0,0,1,.17969.68994h0a.51769.51769,0,0,1,.68994-.18994h0A.51409.51409,0,0,1,4.77,6.85986h0a.51077.51077,0,0,1-.43994.25h0A.589.589,0,0,1,4.08008,7.04Zm-1.73-1a.49375.49375,0,0,1-.18018-.68018h0A.49538.49538,0,0,1,1.49023,5.54h0a.50822.50822,0,0,1-.19043-.68018h0a.51816.51816,0,0,1,.69043-.18994h0a.51393.51393,0,0,1,.17969.68994h0a.50593.50593,0,0,1,.68018-.18994h0a.50565.50565,0,0,1,.18017.68994h0a.4957.4957,0,0,1-.43017.25h0A.47654.47654,0,0,1,2.3501,6.04Z" fill="#FFFFFF"></path><path d="M3,9.71973a.50158.50158,0,0,1,.5-.5h0a.49511.49511,0,0,1,.5.5H4a.50126.50126,0,0,1-.5.5h0A.50805.50805,0,0,1,3,9.71973Zm-1,0a.4954.4954,0,0,1,.5-.5h0a.49511.49511,0,0,1,.5.5H3a.50126.50126,0,0,1-.5.5h0A.50158.50158,0,0,1,2,9.71973Zm-1,0a.50158.50158,0,0,1,.5-.5h0a.49511.49511,0,0,1,.5.5H2a.50126.50126,0,0,1-.5.5h0A.50805.50805,0,0,1,1,9.71973Zm-1,0a.4954.4954,0,0,1,.5-.5h0a.49511.49511,0,0,1,.5.5H1a.50126.50126,0,0,1-.5.5h0A.50158.50158,0,0,1,0,9.71973Z" fill="#FFFFFF"></path><path d="M19.00049,9.71973a.4951.4951,0,0,1,.5-.5h0a.49571.49571,0,0,1,.5.5h0a.5019.5019,0,0,1-.5.5h0A.50126.50126,0,0,1,19.00049,9.71973Zm-1,0a.4951.4951,0,0,1,.5-.5h0a.49571.49571,0,0,1,.5.5h0a.5019.5019,0,0,1-.5.5h0A.50126.50126,0,0,1,18.00049,9.71973Zm-1,0a.50126.50126,0,0,1,.5-.5h0a.49571.49571,0,0,1,.5.5h0a.5019.5019,0,0,1-.5.5h0A.50772.50772,0,0,1,17.00049,9.71973Zm-1,0a.50126.50126,0,0,1,.5-.5h0a.49571.49571,0,0,1,.5.5h0a.5019.5019,0,0,1-.5.5h0A.50772.50772,0,0,1,16.00049,9.71973Z" fill="#FFFFFF"></path><path d="M4.58008,18.61963a.49308.49308,0,0,1-.18018-.67969h0a.50317.50317,0,0,1,.68018-.19043h0a.49086.49086,0,0,1-.18018-.67969h0a.49058.49058,0,0,1,.68018-.17968h0a.50579.50579,0,0,1-.18018-.69043h0A.49981.49981,0,0,1,6.08008,16.02h0a.49352.49352,0,0,1-.18018-.67969h0a.49169.49169,0,0,1,.68018-.18066h0a.4924.4924,0,0,1,.18017.68066h0a.49232.49232,0,0,1-.68017.17969h0a.49591.49591,0,0,1,.18017.67969h0a.4948.4948,0,0,1-.68017.19043h0a.49349.49349,0,0,1,.18017.67968h0a.49068.49068,0,0,1-.68017.17969h0a.50623.50623,0,0,1,.18017.69043h0a.4957.4957,0,0,1-.43017.25h0A.45385.45385,0,0,1,4.58008,18.61963Z" fill="#FFFFFF"></path><path d="M14.18018,18.43994a.50478.50478,0,0,1,.17968-.69043h0a.48989.48989,0,0,1-.67968-.17969h0a.49209.49209,0,0,1,.17968-.67968h0a.494.494,0,0,1-.67968-.19043h0a.49449.49449,0,0,1,.17968-.67969h0a.49153.49153,0,0,1-.67968-.17969h0a.491.491,0,0,1,.17968-.68066h0a.49323.49323,0,0,1,.67969.18066h0a.49254.49254,0,0,1-.17969.67969h0a.50147.50147,0,0,1,.67969.17969h0a.50478.50478,0,0,1-.17969.69043h0a.4921.4921,0,0,1,.67969.17968h0a.4899.4899,0,0,1-.17969.67969h0a.50247.50247,0,0,1,.67969.19043h0a.4921.4921,0,0,1-.17969.67969h0a.45382.45382,0,0,1-.25.07031h0A.49434.49434,0,0,1,14.18018,18.43994Z" fill="#FFFFFF"></path><path d="M.81982,14.85986A.50623.50623,0,0,1,1,14.16943H1a.50565.50565,0,0,1,.68018.19043h0a.51452.51452,0,0,1,.17968-.69043h0a.50824.50824,0,0,1,.68994.19043h0A.50623.50623,0,0,1,2.73,13.16943h0a.50305.50305,0,0,1,.68018.19043h0a.5178.5178,0,0,1,.18994-.69043h0a.50576.50576,0,0,1,.68017.19043h0a.4957.4957,0,0,1-.18017.67969h0a.51278.51278,0,0,1-.68994-.17969h0a.49528.49528,0,0,1-.18018.67969h0a.50141.50141,0,0,1-.68018-.17969h0a.50381.50381,0,0,1-.17968.67969h0a.51038.51038,0,0,1-.68994-.17969h0A.4931.4931,0,0,1,1.5,15.03955h0a.4459.4459,0,0,1-.25.07031h0A.49573.49573,0,0,1,.81982,14.85986Z" fill="#FFFFFF"></path><path d="M17.93994,15.03955a.49212.49212,0,0,1-.17969-.67969h0a.5136.5136,0,0,1-.69043.17969h0a.50471.50471,0,0,1-.17968-.67969h0a.50083.50083,0,0,1-.67969.17969h0a.49542.49542,0,0,1-.18066-.67969h0a.51244.51244,0,0,1-.68946.17969h0a.49543.49543,0,0,1-.18066-.67969h0a.49769.49769,0,0,1,.68066-.19043h0a.51858.51858,0,0,1,.18946.69043h0a.49514.49514,0,0,1,.68066-.19043h0a.50651.50651,0,0,1,.17969.69043h0a.49885.49885,0,0,1,.67968-.19043h0a.509.509,0,0,1,.19043.69043h0a.505.505,0,0,1,.67969-.19043h0a.50479.50479,0,0,1,.17969.69043h0a.49436.49436,0,0,1-.42969.25h0A.58992.58992,0,0,1,17.93994,15.03955Z" fill="#FFFFFF"></path></svg>